# xmcd
# 
# Track frame offsets:
#     150
#     17547
#     36276
#     52654
#     69100
#     83729
#     101058
#     124508
#     144174
#     159335
#     179775
#     200763
# 
# Disc length: 2910
# 
# Revision: 4
# Processed by: cddbd v1.5.2PL0 Copyright (c) Steve Scherf et al.
# Submitted via: fre:ac v1.0.17
# 
DISCID=940b5c0c
DTITLE=Beth Hart - Fire On The Floor
DYEAR=2016
DGENRE=Blues
TTITLE0=Jazz Man
TTITLE1=Love Gangster
TTITLE2=Coca Cola
TTITLE3=Let's Get Together
TTITLE4=Love Is A Lie
TTITLE5=Fat Man
TTITLE6=Fire On The Floor
TTITLE7=Woman You've Been Dreaming Of
TTITLE8=Baby Shot Me Down
TTITLE9=Good Day To Cry
TTITLE10=Picture In A Frame
TTITLE11=No Place Like Home
EXTD=YEAR: 2016
EXTT0=
EXTT1=
EXTT2=
EXTT3=
EXTT4=
EXTT5=
EXTT6=
EXTT7=
EXTT8=
EXTT9=
EXTT10=
EXTT11=
PLAYORDER=
